<svg width="24" height="24" viewBox="0 0 24 24" fill="none" xmlns="http://www.w3.org/2000/svg">
<path d="M16 8.00024C16 6.40894 16 4.50024 15 3.50024C13.8748 2.37503 12 2.50024 12 2.50024C12 2.50024 9.62522 2.37503 8.5 3.50024C7.37478 4.62546 7.5 6.40894 7.5 8.00024C7.5 15.0002 3 17.0002 3 17.0002H21C21 17.0002 16 15.0002 16 8.00024Z" fill="black"/>
<path d="M12 2.50024L11.9605 3.2492C11.9903 3.25078 12.0202 3.25057 12.05 3.24858L12 2.50024ZM7.5 8.00024H6.75H7.5ZM3 17.0002L2.6954 16.3149L3 17.7502V17.0002ZM21 17.0002V17.7502L21.2785 16.3039L21 17.0002ZM16.75 8.00024C16.75 7.21643 16.7516 6.28166 16.616 5.41288C16.4816 4.55116 16.1963 3.63584 15.5303 2.96991L14.4697 4.03057C14.8037 4.36465 15.0184 4.90368 15.134 5.64414C15.2484 6.37753 15.25 7.19276 15.25 8.00024H16.75ZM15.5303 2.96991C14.8145 2.25405 13.8927 1.9625 13.2105 1.84008C12.8619 1.77752 12.5547 1.7553 12.3332 1.7486C12.2219 1.74524 12.1309 1.74576 12.0656 1.74726C12.0328 1.74801 12.0064 1.74901 11.987 1.7499C11.9772 1.75035 11.9692 1.75077 11.9631 1.75112C11.96 1.75129 11.9573 1.75145 11.9552 1.75158C11.9541 1.75165 11.9531 1.75171 11.9522 1.75177C11.9518 1.75179 11.9514 1.75182 11.951 1.75184C11.9509 1.75186 11.9506 1.75187 11.9505 1.75188C11.9503 1.7519 11.95 1.75191 12 2.50024C12.05 3.24858 12.0498 3.24859 12.0495 3.24861C12.0495 3.24861 12.0493 3.24862 12.0491 3.24863C12.0489 3.24865 12.0487 3.24866 12.0485 3.24868C12.048 3.2487 12.0478 3.24872 12.0476 3.24873C12.0472 3.24876 12.0473 3.24875 12.0478 3.24872C12.0487 3.24867 12.0514 3.24852 12.0557 3.24832C12.0643 3.24793 12.0792 3.24734 12.1 3.24686C12.1415 3.24591 12.2058 3.24544 12.2879 3.24792C12.453 3.25291 12.6848 3.2697 12.9456 3.3165C13.482 3.41277 14.0603 3.62122 14.4697 4.03057L15.5303 2.96991ZM12 2.50024C12.0395 1.75128 12.0393 1.75127 12.0391 1.75126C12.039 1.75126 12.0388 1.75125 12.0387 1.75124C12.0383 1.75122 12.038 1.75121 12.0376 1.75119C12.0368 1.75115 12.0359 1.7511 12.0348 1.75105C12.0327 1.75094 12.03 1.75082 12.0267 1.75067C12.0201 1.75038 12.0113 1.75001 12.0003 1.74961C11.9784 1.74881 11.9478 1.74789 11.9095 1.74719C11.8329 1.74579 11.725 1.74527 11.5931 1.74848C11.3305 1.75487 10.9666 1.77615 10.5615 1.83647C9.78711 1.95178 8.70872 2.23086 7.96967 2.96991L9.03033 4.03057C9.4165 3.64441 10.0881 3.42349 10.7824 3.32011C11.1117 3.27108 11.4118 3.25334 11.6296 3.24804C11.7379 3.2454 11.8244 3.24588 11.8821 3.24694C11.9109 3.24746 11.9324 3.24813 11.9458 3.24862C11.9525 3.24886 11.9571 3.24906 11.9596 3.24917C11.9609 3.24923 11.9616 3.24926 11.9617 3.24927C11.9618 3.24927 11.9617 3.24927 11.9615 3.24926C11.9614 3.24925 11.9613 3.24925 11.9611 3.24924C11.961 3.24923 11.9609 3.24922 11.9608 3.24922C11.9607 3.24921 11.9605 3.2492 12 2.50024ZM7.96967 2.96991C7.24746 3.69212 6.95656 4.60037 6.83521 5.47205C6.71651 6.32463 6.75 7.24674 6.75 8.00024H8.25C8.25 7.16245 8.22088 6.39717 8.32088 5.67888C8.41822 4.97969 8.62732 4.43358 9.03033 4.03057L7.96967 2.96991ZM6.75 8.00024C6.75 11.3243 5.68671 13.4071 4.66953 14.6503C4.15642 15.2774 3.64646 15.7012 3.2715 15.965C3.08413 16.0969 2.93106 16.1884 2.82913 16.245C2.7782 16.2733 2.74015 16.2928 2.71712 16.3043C2.70561 16.31 2.69786 16.3137 2.69415 16.3154C2.69229 16.3163 2.69144 16.3167 2.69164 16.3166C2.69174 16.3165 2.6921 16.3164 2.69272 16.3161C2.69303 16.3159 2.69341 16.3158 2.69386 16.3156C2.69408 16.3155 2.69447 16.3153 2.69458 16.3153C2.69498 16.3151 2.6954 16.3149 3 17.0002C3.3046 17.6856 3.30506 17.6854 3.30553 17.6852C3.30571 17.6851 3.30619 17.6849 3.30655 17.6847C3.30727 17.6844 3.30806 17.6841 3.30892 17.6837C3.31063 17.6829 3.31262 17.682 3.31488 17.681C3.3194 17.6789 3.32501 17.6763 3.33167 17.6732C3.34499 17.6669 3.36251 17.6585 3.38396 17.6479C3.42684 17.6266 3.48548 17.5963 3.55759 17.5563C3.70176 17.4762 3.90025 17.3567 4.13475 17.1917C4.60354 16.8618 5.21858 16.348 5.83047 15.6002C7.06329 14.0934 8.25 11.6762 8.25 8.00024H6.75ZM3 17.7502H21V16.2502H3V17.7502ZM21 17.0002C21.2785 16.3039 21.2789 16.304 21.2793 16.3042C21.2794 16.3042 21.2798 16.3044 21.28 16.3045C21.2804 16.3046 21.2807 16.3047 21.2809 16.3048C21.2814 16.3051 21.2816 16.3051 21.2816 16.3051C21.2814 16.305 21.28 16.3045 21.2776 16.3034C21.2727 16.3014 21.2633 16.2973 21.2497 16.2913C21.2226 16.2791 21.1787 16.2589 21.1206 16.2298C21.0042 16.1716 20.8311 16.0784 20.62 15.9448C20.1974 15.6771 19.627 15.25 19.055 14.6207C17.922 13.3745 16.75 11.3014 16.75 8.00024H15.25C15.25 11.6991 16.578 14.126 17.945 15.6297C18.623 16.3755 19.3026 16.8859 19.8175 17.212C20.0752 17.3752 20.2927 17.4929 20.4497 17.5715C20.5283 17.6107 20.5919 17.6403 20.638 17.6609C20.661 17.6712 20.6797 17.6792 20.6937 17.6851C20.7007 17.6881 20.7066 17.6905 20.7112 17.6924C20.7135 17.6934 20.7155 17.6942 20.7172 17.6949C20.7181 17.6953 20.7189 17.6956 20.7196 17.6958C20.7199 17.696 20.7204 17.6962 20.7206 17.6962C20.721 17.6964 20.7215 17.6966 21 17.0002Z" fill="black"/>
<path d="M15.4527 20.0068C15.1017 20.6119 14.5979 21.1142 13.9917 21.4633C13.3855 21.8124 12.6983 21.9962 11.9988 21.9962C11.2993 21.9962 10.612 21.8124 10.0059 21.4633C9.39972 21.1142 8.89592 20.6119 8.54492 20.0068" fill="black"/>
<path d="M15.4527 20.0068L16.1014 20.3832L15.4527 19.2568V20.0068ZM8.54492 20.0068V19.2568L7.89617 20.3832L8.54492 20.0068ZM14.8039 19.6305C14.5188 20.1219 14.1097 20.5299 13.6174 20.8134L14.366 22.1132C15.0861 21.6985 15.6845 21.1019 16.1014 20.3832L14.8039 19.6305ZM13.6174 20.8134C13.1251 21.097 12.5669 21.2462 11.9988 21.2462V22.7462C12.8297 22.7462 13.646 22.5279 14.366 22.1132L13.6174 20.8134ZM11.9988 21.2462C11.4307 21.2462 10.8725 21.097 10.3802 20.8134L9.63154 22.1132C10.3516 22.5279 11.1679 22.7462 11.9988 22.7462V21.2462ZM10.3802 20.8134C9.88791 20.5299 9.47874 20.1219 9.19367 19.6305L7.89617 20.3832C8.3131 21.1019 8.91153 21.6985 9.63154 22.1132L10.3802 20.8134ZM8.54492 20.7568H15.4527V19.2568H8.54492V20.7568Z" fill="black"/>
<path d="M15.4527 20.0068C15.1017 20.6119 14.5979 21.1142 13.9917 21.4633C13.3855 21.8124 12.6983 21.9962 11.9988 21.9962C11.2993 21.9962 10.612 21.8124 10.0059 21.4633C9.39972 21.1142 8.89592 20.6119 8.54492 20.0068" fill="black"/>
<path d="M15.4527 20.0068L16.1014 20.3832L15.4527 19.2568V20.0068ZM8.54492 20.0068V19.2568L7.89617 20.3832L8.54492 20.0068ZM14.8039 19.6305C14.5188 20.1219 14.1097 20.5299 13.6174 20.8134L14.366 22.1132C15.0861 21.6985 15.6845 21.1019 16.1014 20.3832L14.8039 19.6305ZM13.6174 20.8134C13.1251 21.097 12.5669 21.2462 11.9988 21.2462V22.7462C12.8297 22.7462 13.646 22.5279 14.366 22.1132L13.6174 20.8134ZM11.9988 21.2462C11.4307 21.2462 10.8725 21.097 10.3802 20.8134L9.63154 22.1132C10.3516 22.5279 11.1679 22.7462 11.9988 22.7462V21.2462ZM10.3802 20.8134C9.88791 20.5299 9.47874 20.1219 9.19367 19.6305L7.89617 20.3832C8.3131 21.1019 8.91153 21.6985 9.63154 22.1132L10.3802 20.8134ZM8.54492 20.7568H15.4527V19.2568H8.54492V20.7568Z" fill="black"/>
</svg>
