<svg width="44" height="20" viewBox="0 0 44 20" fill="none"
    xmlns="http://www.w3.org/2000/svg">
    <g opacity="0.9">
        <rect x="0.200668" y="0.203613" width="25.9361" height="19.1819" rx="4.45776" fill="url(#paint0_linear_56_5)"/>
        <path fillRule="evenodd" clipRule="evenodd" d="M2.6885 0.737809C3.16735 0.524074 3.69785 0.405251 4.25611 0.405251H7.90337C8.01528 0.405251 8.106 0.314532 8.106 0.202625C8.106 0.0907185 8.01528 0 7.90337 0H4.25611C1.90607 0 0.000976675 1.90509 0.000976675 4.25514V4.93055C0.000976675 5.04246 0.0916952 5.13318 0.203602 5.13318C0.315509 5.13318 0.406228 5.04246 0.406228 4.93055V4.25514C0.406228 2.84434 1.16508 1.61078 2.29688 0.940373V1.35134V5.06614C2.29688 5.17804 2.38759 5.26876 2.4995 5.26876C2.61141 5.26876 2.70213 5.17804 2.70213 5.06614V1.55396H8.64581H12.7996V3.24219H9.86111H9.65848V3.44481V5.3374L8.83219 5.34317C8.81504 5.33846 8.79698 5.33594 8.77833 5.33594C8.75868 5.33594 8.73969 5.33873 8.72173 5.34395L2.63234 5.38653C2.59677 5.35562 2.55032 5.33691 2.4995 5.33691C2.44766 5.33691 2.40037 5.35638 2.36454 5.3884L0.201209 5.40353C0.0893044 5.40431 -0.000777474 5.49566 5.05998e-06 5.60757C0.000787609 5.71947 0.0921383 5.80955 0.204043 5.80877L2.29688 5.79414V8.84909C2.29688 8.961 2.38759 9.05172 2.4995 9.05172C2.61141 9.05172 2.70213 8.961 2.70213 8.84909V5.7913L8.5757 5.75023V9.52344H0.336415C0.224508 9.52344 0.133789 9.61416 0.133789 9.72606C0.133789 9.83797 0.224508 9.92869 0.336415 9.92869H8.5757V13.441H2.76853V10.4692H2.36328V13.441H0.268055C0.156148 13.441 0.0654298 13.5317 0.0654298 13.6436C0.0654298 13.7555 0.156148 13.8462 0.268055 13.8462H8.77833H9.58883V15.8725V16.0751H9.79145H12.7633V17.7636H8.57957H2.70343V14.2515C2.70343 14.1395 2.61271 14.0488 2.5008 14.0488C2.38889 14.0488 2.29818 14.1395 2.29818 14.2515V17.9663V18.3774C1.16566 17.7071 0.406228 16.4732 0.406228 15.0618V14.3864C0.406228 14.2745 0.315509 14.1838 0.203602 14.1838C0.0916952 14.1838 0.000976675 14.2745 0.000976675 14.3864V15.0618C0.000976675 17.4119 1.90607 19.317 4.25611 19.317H7.83583C7.94774 19.317 8.03846 19.2262 8.03846 19.1143C8.03846 19.0024 7.94774 18.9117 7.83583 18.9117H4.25611C3.70365 18.9117 3.17836 18.7953 2.70343 18.5858V18.1689H8.37694V18.9794C8.37694 19.0913 8.46766 19.182 8.57957 19.182C8.69147 19.182 8.78219 19.0913 8.78219 18.9794V18.1689H12.9641L12.9659 18.1689L12.9677 18.1689H17.2925V18.9794C17.2925 19.0913 17.3832 19.182 17.4951 19.182C17.607 19.182 17.6977 19.0913 17.6977 18.9794V18.1689H22.8984V18.7758C22.5743 18.8644 22.2332 18.9117 21.881 18.9117H18.3048C18.1929 18.9117 18.1022 19.0024 18.1022 19.1143C18.1022 19.2262 18.1929 19.317 18.3048 19.317H21.881C24.231 19.317 26.1361 17.4119 26.1361 15.0618V14.454C26.1361 14.342 26.0454 14.2513 25.9335 14.2513C25.8216 14.2513 25.7309 14.342 25.7309 14.454V15.0618C25.7309 16.6855 24.7257 18.0744 23.3037 18.6403V17.9663V14.8593C23.3037 14.7474 23.213 14.6567 23.1011 14.6567C22.9892 14.6567 22.8984 14.7474 22.8984 14.8593V17.7636H17.4951H13.1685V16.0751H16.1404H16.343V15.8725V13.8462H17.086H25.8664C25.9783 13.8462 26.069 13.7555 26.069 13.6436C26.069 13.5317 25.9783 13.441 25.8664 13.441H23.3691V10.4016C23.3691 10.2897 23.2784 10.199 23.1665 10.199C23.0546 10.199 22.9639 10.2897 22.9639 10.4016V13.441H17.2886V9.99705H26.0039C26.1158 9.99705 26.2065 9.90633 26.2065 9.79442C26.2065 9.68252 26.1158 9.5918 26.0039 9.5918H17.2886V5.93467L25.6008 5.87613C25.7127 5.87535 25.8027 5.78399 25.802 5.67209C25.8012 5.56018 25.7098 5.47011 25.5979 5.47089L17.2287 5.52983C17.1921 5.49348 17.1417 5.47102 17.086 5.47102C17.0293 5.47102 16.9781 5.49428 16.9413 5.53177C16.5378 5.52859 16.211 5.20041 16.211 4.79547C16.211 4.68356 16.1203 4.59285 16.0084 4.59285C15.8965 4.59285 15.8058 4.68356 15.8058 4.79547C15.8058 5.4049 16.2831 5.90218 16.8833 5.93529V13.441H16.1404H15.9378V13.6436V15.6698H12.9659H9.99408V13.6436V13.441H9.79145H8.98095V5.7474L9.86253 5.74123L10.0637 5.73982V5.53861V3.64744H12.9908C12.9946 3.64765 12.9984 3.64776 13.0023 3.64776L13.0091 3.64765L13.0137 3.64744H16.2776C16.3895 3.64744 16.4802 3.55672 16.4802 3.44481C16.4802 3.33291 16.3895 3.24219 16.2776 3.24219H13.2049V1.55396H17.3587H22.8971V4.93105C22.8971 5.04296 22.9879 5.13368 23.0998 5.13368C23.2117 5.13368 23.3024 5.04296 23.3024 4.93105V1.35134V0.676155C24.7251 1.24167 25.7309 2.63095 25.7309 4.25514V5.33581C25.7309 5.44771 25.8216 5.53843 25.9335 5.53843C26.0454 5.53843 26.1361 5.44771 26.1361 5.33581V4.25514C26.1361 1.90509 24.231 0 21.881 0H18.3048C18.1929 0 18.1022 0.0907185 18.1022 0.202625C18.1022 0.314532 18.1929 0.405251 18.3048 0.405251H21.881C22.2327 0.405251 22.5734 0.452419 22.8971 0.540775V1.14871H17.5613V0.40575C17.5613 0.293844 17.4706 0.203125 17.3587 0.203125C17.2468 0.203125 17.1561 0.293844 17.1561 0.40575V1.14871H13.0023H8.84843V0.40575C8.84843 0.293844 8.75771 0.203125 8.64581 0.203125C8.5339 0.203125 8.44318 0.293844 8.44318 0.40575V1.14871H2.70213V0.811001C2.70213 0.785193 2.6973 0.760511 2.6885 0.737809ZM9.52438 0C9.41247 0 9.32175 0.0907185 9.32175 0.202625C9.32175 0.314532 9.41247 0.405251 9.52438 0.405251H16.3461C16.458 0.405251 16.5487 0.314532 16.5487 0.202625C16.5487 0.0907185 16.458 0 16.3461 0H9.52438ZM26.1361 6.01122C26.1361 5.89932 26.0454 5.8086 25.9335 5.8086C25.8216 5.8086 25.7309 5.89932 25.7309 6.01122V8.98307C25.7309 9.09497 25.8216 9.18569 25.9335 9.18569C26.0454 9.18569 26.1361 9.09497 26.1361 8.98307V6.01122ZM0.406228 6.55156C0.406228 6.43965 0.315509 6.34893 0.203602 6.34893C0.0916952 6.34893 0.000976675 6.43965 0.000976675 6.55156V8.78044C0.000976675 8.89235 0.0916952 8.98306 0.203602 8.98306C0.315509 8.98306 0.406228 8.89235 0.406228 8.78044V6.55156ZM26.1361 10.469C26.1361 10.3571 26.0454 10.2664 25.9335 10.2664C25.8216 10.2664 25.7309 10.3571 25.7309 10.469V12.968C25.7309 13.0799 25.8216 13.1707 25.9335 13.1707C26.0454 13.1707 26.1361 13.0799 26.1361 12.968V10.469ZM0.406228 10.6041C0.406228 10.4922 0.315509 10.4014 0.203602 10.4014C0.0916952 10.4014 0.000976675 10.4922 0.000976675 10.6041V12.9005C0.000976675 13.0124 0.0916952 13.1031 0.203602 13.1031C0.315509 13.1031 0.406228 13.0124 0.406228 12.9005V10.6041ZM9.38929 18.9117C9.27739 18.9117 9.18667 19.0024 9.18667 19.1143C9.18667 19.2262 9.27739 19.317 9.38929 19.317H16.7514C16.8633 19.317 16.954 19.2262 16.954 19.1143C16.954 19.0024 16.8633 18.9117 16.7514 18.9117H9.38929ZM23.3691 6.34911C23.3691 6.2372 23.2784 6.14648 23.1665 6.14648C23.0546 6.14648 22.9639 6.2372 22.9639 6.34911V8.9157C22.9639 9.02761 23.0546 9.11833 23.1665 9.11833C23.2784 9.11833 23.3691 9.02761 23.3691 8.9157V6.34911Z" fill="url(#paint1_linear_56_5)"/>
    </g>
    <path d="M40.2091 17.6117C40.2675 17.9173 40.5422 18.2367 40.81 18.3157C40.9268 18.35 41.0642 18.3637 41.1123 18.35C41.1603 18.3363 41.2427 18.3225 41.2908 18.3225C41.5381 18.3225 41.8334 17.9207 42.3073 16.9454C43.0903 15.3314 43.578 13.6796 43.8218 11.832C43.9557 10.8293 43.9214 8.75504 43.7565 7.65955C43.4887 5.89097 42.9495 4.19107 42.1597 2.64228C41.9605 2.25079 41.7235 1.85929 41.6308 1.77344C41.3904 1.55022 40.8925 1.51588 40.5971 1.70132C40.3808 1.83526 40.1816 2.1821 40.1816 2.42249C40.1816 2.48774 40.3739 2.93761 40.6109 3.41839C41.7132 5.66432 42.1562 7.53935 42.1562 9.94668C42.1562 12.4364 41.6548 14.49 40.501 16.7222C40.2159 17.2751 40.1713 17.4125 40.2091 17.6117Z" fill="white" fill-opacity="0.6"/>
    <path d="M37.0085 15.6302C36.8883 16.0079 37.187 16.5162 37.5991 16.6364C38.2104 16.815 38.6465 16.3651 39.2681 14.9124C40.4735 12.0793 40.6177 8.97826 39.6768 6.09358C39.3917 5.22131 38.6534 3.67939 38.4165 3.46304C38.0765 3.15053 37.424 3.20891 37.163 3.5798C36.8883 3.97129 36.9123 4.11896 37.3828 5.08395C38.0868 6.51942 38.3649 7.50158 38.5126 9.06068C38.6912 10.9563 38.3237 12.8863 37.4412 14.6892C37.2317 15.1151 37.0359 15.5375 37.0085 15.6302Z" fill="white" fill-opacity="0.6"/>
    <path d="M33.7529 14.2771C33.8147 14.5484 34.0345 14.8197 34.2886 14.933C34.402 14.9846 34.5943 15.012 34.7145 15.0017C35.1094 14.9502 35.3051 14.7373 35.7001 13.9371C36.3869 12.5395 36.6341 11.4989 36.6376 9.98446C36.641 8.51121 36.3766 7.36078 35.731 6.0352C35.312 5.17323 35.0682 4.93628 34.5977 4.93628C34.3195 4.93628 34.2337 4.96719 34.0345 5.15606C33.6327 5.53725 33.643 5.72956 34.1204 6.69456C35.2055 8.89584 35.1952 11.0628 34.0826 13.3156C33.7804 13.9268 33.7151 14.1123 33.7529 14.2771Z" fill="white" fill-opacity="0.6"/>
    <path d="M30.6965 12.7489C30.7652 12.9893 30.9953 13.2641 31.1979 13.3465C31.6409 13.5285 32.0599 13.3224 32.4376 12.7421C33.5056 11.0868 33.5056 8.8615 32.4376 7.19251C32.0667 6.61557 31.792 6.437 31.3902 6.51255C30.9163 6.60183 30.5626 7.12039 30.6897 7.54279C30.7206 7.64581 30.8511 7.90681 30.985 8.12316C31.3765 8.76191 31.4658 9.10875 31.4658 9.94668C31.4658 10.7846 31.3765 11.128 30.985 11.7702C30.6828 12.2682 30.621 12.4811 30.6965 12.7489Z" fill="white" fill-opacity="0.6"/>
    <defs>
        <linearGradient id="paint0_linear_56_5" x1="13.1687" y1="0.203613" x2="13.1687" y2="19.3855" gradientUnits="userSpaceOnUse">
            <stop stop-color="#E0D3D1"/>
            <stop offset="1" stop-color="#D88D35"/>
        </linearGradient>
        <linearGradient id="paint1_linear_56_5" x1="13.1032" y1="0" x2="13.1032" y2="19.317" gradientUnits="userSpaceOnUse">
            <stop stop-color="#464646"/>
            <stop offset="1"/>
        </linearGradient>
    </defs>
</svg>
