<svg width="24" height="24" viewBox="0 0 24 24" fill="none" xmlns="http://www.w3.org/2000/svg">
<path d="M6 2L3 6V20C3 20.5304 3.21071 21.0391 3.58579 21.4142C3.96086 21.7893 4.46957 22 5 22H19C19.5304 22 20.0391 21.7893 20.4142 21.4142C20.7893 21.0391 21 20.5304 21 20V6L18 2H6Z" fill="black"/>
<path d="M6 2V1.25H5.625L5.4 1.55L6 2ZM3 6L2.4 5.55C2.30263 5.67982 2.25 5.83772 2.25 6H3ZM3 20H2.25H3ZM21 6H21.75C21.75 5.83772 21.6974 5.67982 21.6 5.55L21 6ZM18 2L18.6 1.55L18.375 1.25H18V2ZM5.4 1.55L2.4 5.55L3.6 6.45L6.6 2.45L5.4 1.55ZM2.25 6V20H3.75V6H2.25ZM2.25 20C2.25 20.7293 2.53973 21.4288 3.05546 21.9445L4.11612 20.8839C3.8817 20.6495 3.75 20.3315 3.75 20H2.25ZM3.05546 21.9445C3.57118 22.4603 4.27065 22.75 5 22.75V21.25C4.66848 21.25 4.35054 21.1183 4.11612 20.8839L3.05546 21.9445ZM5 22.75H19V21.25H5V22.75ZM19 22.75C19.7293 22.75 20.4288 22.4603 20.9445 21.9445L19.8839 20.8839C19.6495 21.1183 19.3315 21.25 19 21.25V22.75ZM20.9445 21.9445C21.4603 21.4288 21.75 20.7293 21.75 20H20.25C20.25 20.3315 20.1183 20.6495 19.8839 20.8839L20.9445 21.9445ZM21.75 20V6H20.25V20H21.75ZM21.6 5.55L18.6 1.55L17.4 2.45L20.4 6.45L21.6 5.55ZM18 1.25H6V2.75H18V1.25Z" fill="black"/>
<path d="M2.5 6L4.9375 7L7.375 6L9.8125 7L12.25 6L14.6875 7L17.125 6L19.5625 7L22 6" stroke="white" stroke-width="1.5" stroke-linecap="round" stroke-linejoin="round"/>
<path d="M16 10C16 11.0609 15.5786 12.0783 14.8284 12.8284C14.0783 13.5786 13.0609 14 12 14C10.9391 14 9.92172 13.5786 9.17157 12.8284C8.42143 12.0783 8 11.0609 8 10" stroke="white" stroke-width="1.5" stroke-linecap="square" stroke-linejoin="round"/>
</svg>
